<?xml version="1.0" standalone="no"?>
<!DOCTYPE svg PUBLIC "-//W3C//DTD SVG 20010904//EN"
 "http://www.w3.org/TR/2001/REC-SVG-20010904/DTD/svg10.dtd">
<svg version="1.0" xmlns="http://www.w3.org/2000/svg"
 width="1024.000000pt" height="1024.000000pt" viewBox="0 0 1024.000000 1024.000000"
 preserveAspectRatio="xMidYMid meet">

<g transform="translate(0.000000,1024.000000) scale(0.100000,-0.100000)"
fill="#000000" stroke="none">
<path d="M7855 7989 c-79 -19 -291 -138 -525 -298 -256 -173 -388 -271 -821
-605 -421 -325 -579 -448 -775 -603 l-204 -162 -43 16 c-62 23 -227 23 -292
-1 -112 -41 -212 -130 -260 -231 -48 -100 -48 -106 0 -122 l40 -12 -55 5 c-30
3 -71 7 -90 10 -45 7 -168 50 -187 65 -7 7 -16 10 -18 7 -11 -11 -20 -99 -19
-188 3 -228 95 -410 264 -525 114 -77 195 -100 355 -100 143 1 196 12 322 70
107 49 174 98 297 213 95 89 228 192 250 192 3 0 6 -81 6 -180 0 -99 3 -180 6
-180 3 0 55 30 115 66 183 110 396 269 719 539 80 66 157 130 172 141 15 12
44 36 64 54 36 31 37 32 22 63 -9 18 -62 95 -120 172 -57 77 -107 145 -111
152 -5 7 33 39 105 89 166 114 474 346 623 469 72 59 200 178 286 264 132 132
161 167 192 230 49 99 51 170 7 257 -17 32 -45 70 -62 84 -66 51 -169 71 -263
49z m11 -323 c-65 -80 -338 -329 -501 -457 -160 -127 -485 -369 -495 -369 -5
0 -10 4 -10 8 0 5 -30 44 -66 86 -36 43 -62 81 -58 86 66 61 545 387 741 504
183 109 400 207 422 190 2 -2 -13 -24 -33 -48z m-1185 -875 c27 -35 49 -67 49
-71 0 -9 -690 -502 -704 -504 -12 -1 -147 158 -145 172 0 8 81 69 447 339
l246 182 29 -27 c16 -15 51 -56 78 -91z m-876 -596 c59 -74 115 -154 115 -165
0 -3 -20 -20 -44 -37 l-44 -31 -30 41 c-16 23 -60 78 -96 122 l-66 80 43 37
c23 20 47 33 54 29 7 -3 37 -38 68 -76z m-502 68 c-7 -2 -19 -2 -25 0 -7 3 -2
5 12 5 14 0 19 -2 13 -5z m1252 -9 c-11 -8 -28 -21 -37 -28 -20 -18 -67 -42
-53 -29 16 17 97 73 104 73 3 0 -3 -7 -14 -16z m-105 -68 c0 -2 -8 -10 -17
-17 -16 -13 -17 -12 -4 4 13 16 21 21 21 13z m-1350 -19 c0 -2 -10 -12 -22
-23 l-23 -19 19 23 c18 21 26 27 26 19z m1295 -27 c-3 -5 -11 -10 -16 -10 -6
0 -7 5 -4 10 3 6 11 10 16 10 6 0 7 -4 4 -10z m-70 -40 c-9 -15 -65 -52 -65
-43 0 4 15 18 33 30 37 25 40 27 32 13z m-928 -34 c-47 -17 -97 -51 -120 -82
l-18 -25 123 5 c79 3 141 10 172 21 49 17 49 17 68 -7 41 -53 35 -151 -15
-225 -73 -107 -201 -127 -381 -59 -93 35 -169 76 -225 118 -23 18 -23 18 72
18 90 0 95 1 90 20 -3 11 -2 40 1 64 14 89 120 166 231 165 l40 0 -38 -13z
m828 -41 c-28 -23 -45 -31 -45 -21 0 5 63 46 70 46 3 0 -8 -11 -25 -25z m-76
-48 c-49 -41 -131 -98 -136 -94 -2 3 14 18 37 33 23 16 58 41 78 56 45 32 57
35 21 5z m-149 -101 c0 -2 -12 -11 -27 -20 l-28 -17 24 20 c23 21 31 25 31 17z
m-1199 -113 c13 -16 12 -17 -3 -4 -10 7 -18 15 -18 17 0 8 8 3 21 -13z m992
-85 c-66 -91 -167 -188 -195 -188 -5 0 21 25 60 55 38 30 83 75 98 100 16 25
33 45 38 45 5 0 4 -6 -1 -12z m-284 -218 c-8 -5 -47 -11 -85 -14 l-69 -5 75
13 c97 17 98 17 79 6z"/>
<path d="M4040 7775 c-19 -7 -165 -60 -325 -118 -366 -132 -452 -167 -509
-206 -33 -23 -107 -113 -269 -329 -123 -163 -321 -427 -441 -585 -119 -159
-223 -301 -231 -317 -14 -27 -13 -29 33 -72 26 -24 175 -149 332 -278 157
-129 312 -257 345 -286 117 -100 276 -224 288 -224 14 0 64 50 122 123 20 26
41 47 45 47 5 0 8 -246 7 -547 l-2 -547 -95 -38 c-223 -90 -498 -236 -675
-356 -317 -216 -520 -453 -585 -682 -27 -95 -37 -246 -20 -323 28 -134 136
-290 264 -381 51 -37 137 -86 148 -86 2 0 -15 39 -39 88 -189 391 0 792 532
1130 397 252 880 443 1785 707 708 206 1049 329 1400 504 237 119 409 228 596
377 106 85 196 165 192 170 -6 5 -122 -39 -253 -96 -479 -207 -552 -236 -820
-325 -276 -92 -447 -139 -1005 -276 -470 -116 -783 -200 -1017 -273 l-143 -44
-2 865 -3 865 -37 34 c-30 27 -46 34 -78 34 -51 0 -92 -21 -121 -61 -19 -27
-23 -49 -28 -148 -6 -115 -6 -117 -42 -161 -20 -25 -60 -80 -89 -123 l-53 -78
-31 29 c-17 16 -89 76 -161 133 -302 241 -400 321 -403 328 -1 4 161 225 360
491 l363 484 70 29 c39 15 131 50 205 77 74 26 142 51 151 55 13 5 22 -10 44
-77 75 -230 191 -414 380 -603 107 -108 157 -149 280 -230 83 -55 178 -113
212 -129 l61 -29 89 48 c114 61 320 198 404 268 138 115 281 303 358 470 41
88 91 235 91 268 0 10 1 19 3 19 9 0 391 -142 415 -154 17 -9 45 -35 63 -58
18 -24 43 -55 57 -70 l24 -26 113 86 c63 48 114 92 114 97 2 23 -128 172 -175
202 -27 17 -137 63 -244 101 -371 133 -605 214 -635 219 -19 2 -77 -11 -155
-37 -225 -73 -296 -84 -540 -85 -245 0 -291 7 -519 80 -153 50 -151 49 -201
30z m255 -348 c77 -19 184 -41 238 -47 139 -18 445 -7 557 19 47 10 114 26
150 34 36 9 87 23 113 32 26 10 50 16 51 14 2 -2 -3 -29 -10 -58 -20 -75 -91
-221 -151 -309 -66 -96 -182 -224 -195 -216 -6 4 -8 3 -5 -3 11 -18 -197 -177
-221 -168 -7 2 -11 1 -8 -4 3 -5 -8 -14 -26 -20 -35 -12 -64 -14 -34 -2 19 7
19 8 -2 13 -12 4 -22 2 -22 -3 0 -12 -150 81 -210 129 -194 156 -347 394 -395
615 -5 25 -3 27 12 19 10 -6 81 -26 158 -45z m1250 -118 c-21 -101 -42 -156
-98 -258 -105 -191 -296 -352 -480 -406 -48 -14 -66 -15 -114 -5 -102 21 -106
29 -27 54 94 30 224 99 314 168 140 106 246 229 357 417 32 55 59 99 60 98 1
-1 -5 -32 -12 -68z"/>
<path d="M5104 7218 l-19 -23 23 19 c21 18 27 26 19 26 -2 0 -12 -10 -23 -22z"/>
<path d="M5040 7178 c-35 -18 -35 -18 -5 -12 30 6 53 20 44 27 -2 2 -20 -5
-39 -15z"/>
<path d="M4716 7101 c-4 -5 3 -7 14 -4 23 6 26 13 6 13 -8 0 -17 -4 -20 -9z"/>
<path d="M4760 7106 c0 -2 11 -6 25 -8 13 -3 22 -1 19 3 -5 9 -44 13 -44 5z"/>
<path d="M4350 7026 c0 -2 8 -10 18 -17 15 -13 16 -12 3 4 -13 16 -21 21 -21
13z"/>
<path d="M4741 6774 c0 -11 3 -14 6 -6 3 7 2 16 -1 19 -3 4 -6 -2 -5 -13z"/>
<path d="M7713 6569 c-95 -18 -177 -70 -210 -133 -32 -62 -12 -156 36 -169 11
-3 47 9 83 27 87 43 168 44 222 2 51 -38 80 -104 74 -167 -15 -152 -227 -424
-503 -645 -325 -260 -823 -553 -1301 -765 -383 -169 -645 -263 -1614 -577
-305 -99 -571 -196 -754 -274 -633 -270 -965 -563 -1016 -895 -30 -193 56
-393 213 -494 194 -126 452 -125 741 3 148 65 280 145 751 454 322 212 526
327 1070 604 557 283 700 361 970 523 736 442 1242 931 1510 1459 109 212 163
383 172 544 10 169 -25 286 -114 384 -61 67 -127 104 -207 119 -66 12 -64 12
-123 0z m-1228 -2079 c13 -6 15 -9 5 -9 -8 0 -22 4 -30 9 -18 12 -2 12 25 0z
m80 -36 c-85 -70 -470 -286 -875 -492 -168 -85 -345 -176 -395 -202 -49 -26
-128 -68 -175 -92 -226 -120 -394 -212 -550 -303 -36 -20 -85 -49 -110 -63
-25 -14 -56 -33 -70 -42 -14 -9 -74 -48 -135 -85 -60 -38 -152 -95 -202 -126
-51 -32 -92 -55 -92 -51 1 4 0 9 -1 12 -12 31 -7 42 16 37 18 -3 22 -1 14 8
-5 6 -7 15 -3 18 3 4 2 7 -3 7 -6 0 -15 -5 -22 -12 -8 -8 -15 -8 -24 0 -10 8
-18 8 -28 0 -12 -8 -11 -9 4 -4 16 6 17 4 6 -10 -11 -13 -11 -17 0 -24 7 -5
15 -15 16 -23 2 -18 -33 -15 -50 4 -8 9 -6 9 11 0 14 -7 24 -8 28 -1 3 5 0 10
-8 10 -8 0 -17 9 -20 20 -7 26 -26 25 -36 -2 -6 -17 -2 -27 16 -44 l23 -22
-22 -5 c-12 -3 -29 -2 -37 4 -13 8 -11 9 7 4 16 -5 22 -2 22 10 0 11 -5 15
-16 11 -8 -3 -12 -2 -9 4 3 6 0 10 -7 10 -10 0 -9 3 2 10 8 5 11 12 7 17 -10
9 -28 -18 -23 -33 3 -6 -8 -10 -27 -8 -36 3 -109 -24 -101 -37 3 -5 -2 -6 -10
-3 -8 3 -37 -5 -65 -18 -46 -22 -49 -23 -40 -5 6 10 13 16 16 13 3 -3 19 2 37
11 30 15 30 16 8 24 -12 5 -22 11 -22 13 0 3 12 1 26 -4 18 -7 33 -6 54 5 30
16 51 39 27 29 -8 -3 -18 -1 -21 4 -3 5 8 8 25 6 16 -2 28 0 25 4 -3 5 4 8 16
8 31 -1 46 28 24 49 -14 14 -14 20 -4 33 11 13 10 15 -11 9 -24 -6 -71 10 -71
25 0 5 -5 6 -11 2 -8 -4 -7 -9 2 -15 10 -6 10 -9 2 -9 -6 0 -15 4 -18 10 -10
17 -68 -13 -71 -37 -3 -17 0 -21 12 -16 8 3 13 12 10 19 -3 7 -2 15 2 18 4 3
9 -4 9 -15 1 -11 -5 -23 -13 -26 -8 -3 -14 -12 -14 -19 0 -12 -3 -12 -14 -2
-7 7 -12 18 -9 24 8 21 -16 26 -44 10 -29 -16 -179 -76 -190 -76 -4 0 3 11 16
23 19 21 20 25 6 37 -17 14 -20 30 -4 30 5 0 8 -4 5 -9 -13 -21 24 -18 44 4
24 25 19 50 -9 41 -12 -5 -11 -3 3 9 23 17 8 43 -24 40 -32 -2 -36 -15 -4 -15
21 0 25 -3 14 -9 -8 -6 -18 -7 -22 -5 -4 3 -8 -1 -9 -8 0 -7 -4 -4 -9 7 -4 11
-4 24 1 30 12 12 12 28 0 20 -5 -3 -13 0 -16 5 -5 8 -14 5 -28 -7 l-22 -18 19
22 c13 15 23 20 30 14 7 -6 17 -6 26 -1 13 8 12 10 -2 10 -10 0 -18 5 -18 12
0 6 3 9 6 5 3 -3 16 4 28 15 24 24 180 128 191 128 4 0 30 14 57 30 68 42 258
122 275 116 8 -3 12 -2 9 3 -5 8 11 15 144 61 36 12 117 43 180 68 63 24 309
109 545 188 468 156 628 212 690 238 22 10 61 24 86 32 25 8 142 52 259 99
117 46 217 82 223 78 5 -3 7 -1 4 4 -9 14 20 25 47 18 12 -3 15 -2 7 1 -8 4
15 20 59 40 74 35 110 42 110 22 0 -6 3 -8 6 -5 4 4 1 13 -6 22 -11 13 -10 14
6 9 10 -4 31 -16 47 -26 15 -11 27 -15 27 -10 0 15 37 21 50 8 8 -8 9 -6 4 9
-4 11 -12 23 -18 27 -6 4 -1 8 12 8 12 0 22 5 22 12 0 6 3 8 6 5 4 -4 1 -14
-6 -22 -9 -11 -10 -19 -3 -26 11 -11 43 -2 43 13 0 5 5 6 10 3 6 -3 10 -1 10
5 0 6 4 9 9 5 5 -3 16 1 24 9 8 8 17 13 20 10 3 -3 14 -1 24 5 30 18 30 12 -2
-15z m-220 6 c-3 -5 -1 -18 4 -27 10 -16 10 -17 11 -1 0 24 16 31 17 8 2 -23
-22 -33 -48 -20 -23 13 -23 14 -3 34 17 18 28 21 19 6z m118 -20 c-9 -11 -19
-17 -21 -15 -6 6 18 35 29 35 5 0 1 -9 -8 -20z m-3113 -1236 c0 -8 -5 -12 -10
-9 -6 4 -8 11 -5 16 9 14 15 11 15 -7z m47 -66 c-3 -8 -6 -5 -6 6 -1 11 2 17
5 13 3 -3 4 -12 1 -19z m33 -13 c-7 -8 -17 -15 -22 -15 -11 0 14 29 26 30 5 0
3 -7 -4 -15z m304 9 c9 -3 16 -11 16 -17 0 -7 -4 -7 -12 1 -17 17 -29 15 -22
-3 4 -8 2 -15 -4 -15 -15 0 -23 28 -9 34 7 2 13 5 14 5 1 1 8 -2 17 -5z m-403
-21 c13 -16 12 -17 -3 -4 -17 13 -22 21 -14 21 2 0 10 -8 17 -17z m449 -24 c0
-4 -6 -12 -14 -18 -11 -9 -15 -7 -19 8 -3 15 0 19 14 18 11 -1 19 -4 19 -8z
m-90 -5 c0 -8 -19 -13 -24 -6 -3 5 1 9 9 9 8 0 15 -2 15 -3z m-310 -14 c0 -5
-2 -10 -4 -10 -3 0 -8 5 -11 10 -3 6 -1 10 4 10 6 0 11 -4 11 -10z m420 0 c0
-5 -5 -10 -11 -10 -5 0 -7 5 -4 10 3 6 8 10 11 10 2 0 4 -4 4 -10z m-60 -4 c0
-3 -4 -8 -10 -11 -5 -3 -10 -1 -10 4 0 6 5 11 10 11 6 0 10 -2 10 -4z m-45
-13 c-11 -3 -26 -12 -32 -21 -7 -9 -13 -11 -13 -6 0 17 23 34 45 33 20 -1 20
-1 0 -6z m-245 -13 c0 -5 -2 -10 -4 -10 -3 0 -8 5 -11 10 -3 6 -1 10 4 10 6 0
11 -4 11 -10z m187 -12 c-3 -8 -6 -5 -6 6 -1 11 2 17 5 13 3 -3 4 -12 1 -19z
m-194 -23 c-3 -9 -8 -14 -10 -11 -3 3 -2 9 2 15 9 16 15 13 8 -4z m-23 -5 c0
-5 -2 -10 -4 -10 -3 0 -8 5 -11 10 -3 6 -1 10 4 10 6 0 11 -4 11 -10z m510
-24 c0 -3 -4 -8 -10 -11 -5 -3 -10 -1 -10 4 0 6 5 11 10 11 6 0 10 -2 10 -4z
m-385 -26 c-3 -5 -12 -10 -18 -10 -7 0 -6 4 3 10 19 12 23 12 15 0z m354 6
c-2 -2 -15 -9 -29 -15 -24 -11 -24 -11 -6 3 16 13 49 24 35 12z m-261 -71 c-3
-3 -9 2 -12 12 -6 14 -5 15 5 6 7 -7 10 -15 7 -18z"/>
<path d="M6385 4400 c-3 -5 -1 -10 4 -10 6 0 11 5 11 10 0 6 -2 10 -4 10 -3 0
-8 -4 -11 -10z"/>
<path d="M3475 3330 c-3 -5 -1 -10 4 -10 6 0 11 5 11 10 0 6 -2 10 -4 10 -3 0
-8 -4 -11 -10z"/>
<path d="M3629 3313 c-13 -16 -12 -17 4 -4 16 13 21 21 13 21 -2 0 -10 -8 -17
-17z"/>
<path d="M3415 3287 c-32 -23 -32 -35 -1 -33 13 0 22 3 20 5 -6 6 17 31 28 31
5 0 6 -5 2 -11 -4 -7 -1 -10 6 -7 7 2 14 11 15 19 3 20 -39 18 -70 -4z m25 -2
c-7 -8 -17 -15 -23 -15 -6 0 -2 7 9 15 25 19 30 19 14 0z"/>
<path d="M3450 3250 c0 -5 5 -10 11 -10 5 0 7 5 4 10 -3 6 -8 10 -11 10 -2 0
-4 -4 -4 -10z"/>
<path d="M3539 3233 l-24 -28 28 24 c25 23 32 31 24 31 -2 0 -14 -12 -28 -27z"/>
<path d="M3405 3242 c-13 -9 -17 -32 -6 -32 5 0 11 9 14 20 6 22 6 22 -8 12z"/>
<path d="M3424 3228 c-4 -6 2 -19 14 -28 15 -13 18 -20 9 -29 -8 -8 -8 -11 1
-11 11 0 16 13 13 33 0 4 4 7 10 7 5 0 7 5 4 10 -3 6 -15 10 -26 10 -11 0 -17
5 -14 10 3 6 4 10 1 10 -3 0 -8 -5 -12 -12z"/>
<path d="M3950 3220 c-9 -6 -10 -10 -3 -10 6 0 15 5 18 10 8 12 4 12 -15 0z"/>
<path d="M3865 3176 c-16 -6 -31 -19 -33 -28 -3 -16 1 -16 33 3 58 35 58 47 0
25z"/>
<path d="M4154 3157 c17 -13 17 -14 -8 -30 -14 -9 -29 -17 -35 -17 -5 0 -11
-7 -15 -15 -3 -8 19 1 49 22 55 36 67 47 41 37 -8 -3 -17 -1 -21 5 -3 6 -11
11 -18 11 -6 0 -3 -6 7 -13z"/>
<path d="M3800 3150 c0 -5 5 -10 10 -10 6 0 10 5 10 10 0 6 -4 10 -10 10 -5 0
-10 -4 -10 -10z"/>
<path d="M4034 3134 c-18 -14 -18 -15 4 -4 12 6 22 13 22 15 0 8 -5 6 -26 -11z"/>
<path d="M4065 3130 c-3 -5 -3 -10 2 -10 4 0 1 -5 -7 -11 -13 -9 -13 -10 0 -6
8 2 14 10 12 17 -2 8 5 9 19 5 15 -5 19 -4 15 4 -9 14 -33 14 -41 1z"/>
<path d="M3794 3118 c-5 -7 -2 -9 9 -5 11 4 14 2 10 -9 -3 -7 0 -14 7 -14 6 0
9 -4 6 -9 -9 -14 22 -7 37 9 10 10 9 12 -5 7 -12 -4 -21 1 -28 13 -12 23 -25
26 -36 8z"/>
<path d="M3846 3115 c-4 -13 -2 -13 13 -5 16 8 21 6 24 -8 4 -13 5 -11 6 6 1
26 -33 32 -43 7z"/>
<path d="M4005 3100 c-4 -6 -12 -7 -18 -3 -8 5 -8 2 0 -9 7 -8 10 -18 6 -21
-10 -11 6 -8 29 4 18 10 20 9 15 -5 -5 -14 -3 -15 13 -6 27 14 34 29 10 23
-12 -3 -22 1 -26 11 -7 18 -20 21 -29 6z"/>
<path d="M3945 3091 c-3 -5 -2 -12 3 -15 5 -3 9 1 9 9 0 17 -3 19 -12 6z"/>
<path d="M3790 3010 c-9 -6 -10 -10 -3 -10 6 0 15 5 18 10 8 12 4 12 -15 0z"/>
<path d="M6667 3889 c-59 -14 -121 -55 -178 -117 -64 -70 -89 -126 -89 -199 0
-95 39 -149 128 -172 124 -34 317 92 367 238 39 116 -7 222 -110 250 -46 13
-65 13 -118 0z"/>
<path d="M7250 3638 c-63 -32 -114 -109 -107 -161 6 -43 38 -84 71 -89 70 -11
172 46 205 115 29 60 27 93 -8 128 -37 37 -96 39 -161 7z"/>
<path d="M5797 3406 c-90 -33 -156 -121 -143 -191 8 -40 57 -85 93 -85 54 0
109 25 155 71 55 55 68 99 44 151 -27 56 -84 77 -149 54z"/>
<path d="M5093 3080 c-61 -27 -142 -107 -169 -165 -58 -124 0 -230 125 -229
72 0 151 36 210 95 55 56 81 110 81 174 0 62 -15 93 -59 122 -44 29 -128 31
-188 3z"/>
</g>
</svg>
